<?xml version="1.0" encoding="iso-8859-1"?>
<!-- Generator: Adobe Illustrator 19.0.0, SVG Export Plug-In . SVG Version: 6.00 Build 0)  -->
<svg version="1.1" id="Layer_1" xmlns="http://www.w3.org/2000/svg" xmlns:xlink="http://www.w3.org/1999/xlink" x="0px" y="0px"
	 viewBox="0 0 512 512" style="enable-background:new 0 0 512 512;" xml:space="preserve">
<path style="fill:#FFB88B;" d="M428.656,101.275H361.14V67.516h-33.758L304.876,512h33.758c18.567,0,32.08-15.098,30.03-33.551
	l-7.525-67.724v-33.758h67.517c37.229,0,67.516-30.288,67.516-67.516V168.791C496.173,131.563,465.885,101.275,428.656,101.275z
	 M462.415,309.451c0,18.567-15.191,33.758-33.758,33.758H361.14V135.033h67.517c18.567,0,33.758,15.191,33.758,33.758V309.451z"/>
<path style="fill:#FFCFB2;" d="M334.906,478.449l-7.525-67.724V67.516H23.558v343.209l-7.525,67.724
	C13.983,496.902,27.496,512,46.063,512h258.813C323.443,512,336.957,496.902,334.906,478.449z"/>
<polygon style="fill:#FF6638;" points="271.118,112.527 293.623,410.725 327.382,410.725 327.382,135.033 "/>
<polygon style="fill:#FF883E;" points="57.316,135.033 57.316,410.725 293.623,410.725 293.623,112.527 "/>
<polygon style="fill:#FFAB58;" points="271.118,45.011 293.623,135.033 327.382,135.033 327.382,67.516 "/>
<g>
	<polygon style="fill:#FFCD71;" points="57.316,67.516 57.316,135.033 293.623,135.033 293.623,45.011 	"/>
	<path style="fill:#FFCD71;" d="M293.623,0l-22.505,67.516h56.264V33.758C327.382,15.114,312.267,0,293.623,0z"/>
</g>
<g>
	<path style="fill:#FFE1AA;" d="M268.305,11.441C262.119,4.429,253.072,0,242.986,0s-19.133,4.429-25.319,11.441
		C211.482,4.429,202.435,0,192.349,0c-10.086,0-19.133,4.429-25.319,11.441C160.844,4.429,151.797,0,141.711,0
		s-19.133,4.429-25.319,11.441C110.207,4.429,101.16,0,91.074,0C72.429,0,57.316,15.114,57.316,33.758v33.758h135.033
		c0,0,0,142.59,0,151.912c0,9.322,7.557,16.879,16.879,16.879c9.322,0,16.879-7.557,16.879-16.879c0-9.322,0-151.912,0-151.912
		h33.758c0,0,0,75.074,0,84.396s7.557,16.879,16.879,16.879s16.879-7.557,16.879-16.879s0-84.396,0-84.396V0
		C283.538,0,274.49,4.429,268.305,11.441z"/>
	<circle style="fill:#FFE1AA;" cx="133.277" cy="301.011" r="8.44"/>
	<circle style="fill:#FFE1AA;" cx="99.519" cy="177.231" r="8.44"/>
	<circle style="fill:#FFE1AA;" cx="251.431" cy="334.769" r="8.44"/>
	<circle style="fill:#FFE1AA;" cx="285.19" cy="368.527" r="8.44"/>
</g>
<g>
</g>
<g>
</g>
<g>
</g>
<g>
</g>
<g>
</g>
<g>
</g>
<g>
</g>
<g>
</g>
<g>
</g>
<g>
</g>
<g>
</g>
<g>
</g>
<g>
</g>
<g>
</g>
<g>
</g>
</svg>
